<svg version="1.2" baseProfile="tiny" xmlns="http://www.w3.org/2000/svg" viewBox="0 0 32 32" overflow="scroll"><path d="M17.4 6.5V4.9h2.3V1h-7.4v3.9h2.3v1.7c-6.1.6-10.9 5.8-10.9 12.1C3.7 25.5 9.2 31 16 31s12.3-5.5 12.3-12.3c0-6.3-4.8-11.5-10.9-12.2z"/><path fill="#FFF" d="M16 7.8c-6 0-10.9 4.9-10.9 10.9S10 29.6 16 29.6s10.9-4.9 10.9-10.9S22 7.8 16 7.8z"/><path d="M24.1 18.7c0 4.5-3.6 8.1-8.1 8.1s-8.1-3.6-8.1-8.1c0-2.1.8-4.1 2.3-5.7l.5.5 7.7 5.3-2.6 2.7-4.7-7.5c-1.2 1.3-1.8 2.9-1.8 4.6 0 3.7 3 6.8 6.8 6.8s6.8-3 6.8-6.8c0-2.7-1.6-5.1-4.1-6.2.1-.2.5-1 .6-1.3 2.8 1.5 4.7 4.4 4.7 7.6zM16 9.8c-.8 0-1.5.7-1.5 1.5s.7 1.5 1.5 1.5 1.5-.7 1.5-1.5-.7-1.5-1.5-1.5z"/></svg>